# xmcd
#
# Track frame offsets:
#	150
#	11992
#	23302
#	35750
#	50527
#	62985
#	77180
#	88815
#	106320
#	120415
#
# Disc length: 1751 seconds
#
# Revision: 1
# Processed by: cddbd v1.5.2PL0 Copyright (c) Steve Scherf et al.
# Submitted via: audiograbber 1.83.01
#
DISCID=7d06d50a
DTITLE=Janet Clark - I Belong To You
DYEAR=2000
DGENRE=
TTITLE0=Missing Pieces
TTITLE1=I´m My Baby´s Baby
TTITLE2=Together You And Me
TTITLE3=I Want To Hear An Echo
TTITLE4=I Belong To You
TTITLE5=It´s A Classic
TTITLE6=You Can Fly Again
TTITLE7=Long Awaited Love
TTITLE8=Ain´t Gonna Take Your Cheatin´ Lying Down
TTITLE9=What´s Wrong With You
EXTD=
EXTT0=
EXTT1=
EXTT2=
EXTT3=
EXTT4=
EXTT5=
EXTT6=
EXTT7=
EXTT8=
EXTT9=
PLAYORDER=
